/* XPM */
static char *pixil_frame_0_6_1740755471[] = {
/* columns rows colors chars-per-pixel */
"64 64 249 2 ",
"   c #0E2838",
".  c #0F2A38",
"X  c #102A38",
"o  c #122D3B",
"O  c #082744",
"+  c #082949",
"@  c #082C50",
"#  c #083364",
"$  c #083365",
"%  c #08366A",
"&  c #0A396C",
"*  c #083872",
"=  c #083973",
"-  c #0B3E78",
";  c #083C7A",
":  c #083D7E",
">  c #1A415C",
",  c #23485A",
"<  c #1A4465",
"1  c #0C417F",
"2  c #154779",
"3  c #234F6B",
"4  c #2A5468",
"5  c #2E5F7A",
"6  c #356273",
"7  c #356274",
"8  c #3B6672",
"9  c #3F6D79",
"0  c #41717E",
"q  c #083E80",
"w  c #083F81",
"e  c #083F82",
"r  c #0D4484",
"t  c #0E4485",
"y  c #0E4786",
"u  c #0F4786",
"i  c #104988",
"p  c #164C8A",
"a  c #1B508D",
"s  c #2F6383",
"d  c #266196",
"f  c #326B91",
"g  c #306D9A",
"h  c #32709F",
"j  c #3872A1",
"k  c #3F7DA1",
"l  c #407DA2",
"z  c #407EA2",
"x  c #518791",
"c  c #4080A8",
"v  c #4687AD",
"b  c #5293AF",
"n  c #5999AF",
"m  c #5D8DB4",
"M  c #5290B3",
"N  c #5F94B7",
"B  c #619EA6",
"V  c #58A0A2",
"C  c #58A3A6",
"Z  c #5AA3A7",
"A  c #5DA5A8",
"S  c #5EA7AA",
"D  c #64A5A8",
"F  c #69AAAC",
"G  c #61ADB1",
"H  c #63ACB0",
"J  c #61AFB2",
"K  c #6AAAB3",
"L  c #6AAAB4",
"P  c #73AEB0",
"I  c #64B0B4",
"U  c #67B1B4",
"Y  c #66B2B7",
"T  c #67B3B8",
"R  c #6FB1B8",
"E  c #6EB1B9",
"W  c #70B3BB",
"Q  c #71B4B8",
"!  c #73B7BE",
"~  c #6AB2C5",
"^  c #6DB4C7",
"/  c #6FBBC0",
"(  c #71BACB",
")  c #78BDCD",
"_  c #79C6CB",
"`  c #7CC8CE",
"'  c #7FC8CE",
"]  c #7DCACF",
"[  c #7ECAD0",
"{  c #7FCCD1",
"}  c #7FCBD5",
"|  c #85BDBD",
" . c #8BC0C4",
".. c #8DC3C7",
"X. c #89C2C9",
"o. c #99CCCC",
"O. c #9CCECE",
"+. c #80C9D0",
"@. c #80CBD1",
"#. c #80CDD3",
"$. c #82CCD2",
"%. c #94C8D7",
"&. c #9BC9D1",
"*. c #9DCCD3",
"=. c #9ECFD2",
"-. c #9DCCD5",
";. c #85D2D7",
":. c #85D2D8",
">. c #86D3D9",
",. c #87D3D9",
"<. c #87D4DA",
"1. c #8BD3D9",
"2. c #88D5DB",
"3. c #89D5DB",
"4. c #8AD5DB",
"5. c #8BD5DB",
"6. c #8BD6DB",
"7. c #8CD6DB",
"8. c #8AD6DC",
"9. c #8BD6DC",
"0. c #8CD6DC",
"q. c #8DD7DC",
"w. c #8DD7DD",
"e. c #8ED7DC",
"r. c #8ED7DD",
"t. c #8FD7DD",
"y. c #8FD8DD",
"u. c #8ED9DF",
"i. c #94D3D5",
"p. c #9BD2D3",
"a. c #95D7DC",
"s. c #9DD4DE",
"d. c #90D8DD",
"f. c #92D8DD",
"g. c #90D8DE",
"h. c #91D8DE",
"j. c #92D8DE",
"k. c #93D9DE",
"l. c #92D9DF",
"z. c #93D9DF",
"x. c #90DADF",
"c. c #92DBDE",
"v. c #94DADF",
"b. c #95DADF",
"n. c #96DADF",
"m. c #A2D2D5",
"M. c #AAD6D8",
"N. c #ADDBDB",
"B. c #B2D8DA",
"V. c #8FDDE2",
"C. c #97DBE0",
"Z. c #94D9E3",
"A. c #96DCE2",
"S. c #97DDE2",
"D. c #98DBE0",
"F. c #99DBE0",
"G. c #9ADCE1",
"H. c #9BDCE1",
"J. c #99DEE0",
"K. c #9CDFE0",
"L. c #9DDDE2",
"P. c #9EDDE2",
"I. c #9FDEE3",
"U. c #9ADCE5",
"Y. c #9BDEE4",
"T. c #9DDCE6",
"R. c #9EDEE6",
"E. c #A0DEE3",
"W. c #A1DFE3",
"Q. c #A4DDE2",
"!. c #A2DFE4",
"~. c #A3DFE4",
"^. c #B2D9E5",
"/. c #9EE0E1",
"(. c #A3E1E2",
"). c #A3E0E4",
"_. c #A0E1E6",
"`. c #A6E1E5",
"'. c #A7E1E6",
"]. c #A9E1E6",
"[. c #AAE2E6",
"{. c #ABE2E7",
"}. c #ABE3E7",
"|. c #ACE3E7",
" X c #AEE3E7",
".X c #A8E5E5",
"XX c #AAE5E6",
"oX c #ACE5E7",
"OX c #A1E3E8",
"+X c #A3E3E8",
"@X c #A4E0EA",
"#X c #A6E0EA",
"$X c #A8E2E9",
"%X c #ACE3E8",
"&X c #AEE3E8",
"*X c #AFE3E8",
"=X c #ACE3EA",
"-X c #AEE4E8",
";X c #AFE5E8",
":X c #ACE5EA",
">X c #ABE3EC",
",X c #ACE4EC",
"<X c #AEE4EC",
"1X c #B1E5E6",
"2X c #B0E2EB",
"3X c #B0E5E9",
"4X c #B2E4E9",
"5X c #B2E5E9",
"6X c #B1E7E8",
"7X c #B2E6EA",
"8X c #B5E5EA",
"9X c #B6E7EB",
"0X c #B5E7ED",
"qX c #B8E7EF",
"wX c #B2E9E9",
"eX c #B7E8EC",
"rX c #B7E9ED",
"tX c #B7EBEE",
"yX c #B8E8EC",
"uX c #B9E8ED",
"iX c #B9E9ED",
"pX c #BBE8EF",
"aX c #B8EAEF",
"sX c #BBEAEE",
"dX c #BEE9EE",
"fX c #BCEAEE",
"gX c #BEEAEE",
"hX c #BAEDED",
"jX c #BCEEEE",
"kX c #BDE7F0",
"lX c #BAE6F4",
"zX c #B9ECF1",
"xX c #BBF0F1",
"cX c #C0E9ED",
"vX c #C1ECEF",
"bX c #C2EEEE",
"nX c #C3EEF1",
"mX c #C0EDF2",
"MX c #C2ECF3",
"NX c #C4ECF0",
"BX c #C6EDF1",
"VX c #C7EEF1",
"CX c #C3ECF6",
"ZX c #C8EFF2",
"AX c #C9EFF2",
"SX c #CBF0F3",
"DX c #CDF1F4",
"FX c #D1F1F8",
"GX c None",
/* pixels */
"GXGXGXGXGXGXGXGXGXGXGXGXGXGXGXGXGXGXGXGXGXGXGXGXGXGXGXGXGXGXGXGXGXGXGXGXGXGXGXGXGXGXGXGXGXGXGXGXGXGXGXGXGXGXGXGXGXGXGXGXGXGXGXGX",
"GXGXGXGXGXGXGXGXGXGXGXGXGXGXGXGXGXGXGXGXGXGXGXGXGXGXGXGXGXGXGXGXGXGXGXGXGXGXGXGXGXGXGXGXGXGXGXGXGXGXGXGXGXGXGXGXGXGXGXGXGXGXGXGX",
"GXGXGXGXGXGXGXGXGXGXGXGXGXGXGXGXGXGXGXGXGXGXGXGXGXGXGXGXGXGXGXGXGXGXGXGXGXGXGXGXGXGXGXGXGXGXGXGXGXGXGXGXGXGXGXGXGXGXGXGXGXGXGXGX",
"GXGXGXGXGXGXGXGXGXGXGXGXGXGXGXGXGXGXGXGXGXGXGXGXGXGXGXGXGXGXGXGXGXGXGXGXGXGXGXGXGXGXGXGXGXGXGXGXGXGXGXGXGXGXGXGXGXGXGXGXGXGXGXGX",
"GXGXGXGXGXGXGXGXGXGXGXGXGXGXGXGXGXGXGXGXGXGXGXGXGXGXGXGXGXGXGXGXGXGXGXGXGXGXGXGXGXGXGXGXGXGXGXGXGXGXGXGXGXGXGXGXGXGXGXGXGXGXGXGX",
"GXGXGXGXGXGXGXGXGXGXGXGXGXGXGXGXGXGXGXGXGXGXGXGXGXGXGXGXGXGXGXGXGXGXGXGXGXGXGXGXGXGXGXGXGXGXGXGXGXGXGXGXGXGXGXGXGXGXGXGXGXGXGXGX",
"GXGXGXGXGXGXGXGXGXGXGXGXGXGXGXGXGXGXGXGXGXGXGXGXGXGXGXGXGXGXGXGXGXGXGXGXGXGXGXGXGXGXGXGXGXGXGXGXGXGXGXGXGXGXGXGXGXGXGXGXGXGXGXGX",
"GXGXGXGXGXGXGXGXGXGXGXGXGXGXGXGXGXGXGXGXGXGXGXGXGXGXGXGXGXGXGXGXGXGXGXGXGXGXGXGXGXGXGXGXGXGXGXGXGXGXGXGXGXGXGXGXGXGXGXGXGXGXGXGX",
"GXGXGXGXGXGXGXGXGXGXGXGXGXGXGXGXGXGXGXGXGXGXGXGXGXGXGXGXGXGXGXGXGXGXGXGXGXGXGXGXGXGXGXGXGXGXGXGXGXGXGXGXGXGXGXGXGXGXGXGXGXGXGXGX",
"GXGXGXGXGXGXGXGXGXGXGXGXGXGXGXGXGXGXGXGXGXGXGXGXGXGXGXGXGXGXGXGXGXGXGXGXGXGXGXGXGXGXGXGXGXGXGXGXGXGXGXGXGXGXGXGXGXGXGXGXGXGXGXGX",
"GXGXGXGXGXGXGXGXGXGXGXGXGXGXGXGXGXGXGXGXGXGXGXGXGXGXGXGXGXGXGXGXGXGXGXGXGXGXGXGXGXGXGXGXGXGXGXGXGXGXGXGXGXGXGXGXGXGXGXGXGXGXGXGX",
"GXGXGXGXGXGXGXGXGXGXGXGXGXGXGXGXGXGXGXGXGXGXGXGXGXGXGXGXGXGXGXGXGXGXGXGXGXGXGXGXGXGXGXGXGXGXGXGXGXGXGXGXGXGXGXGXGXGXGXGXGXGXGXGX",
"GXGXGXGXGXGXGXGXGXGXGXGXGXGXGXGXGXGXGXGXGXGXGXGXGXGXGXGXGXGXGXGXGXGXGXGXGXGXGXGXGXGXGXGXGXGXGXGXGXGXGXGXGXGXGXGXGXGXGXGXGXGXGXGX",
"GXGXGXGXGXGXGXGXGXGXGXGXGXGXGXGXGXGXGXGXGXGXGXGXGXGXGXGXGXGXGXGXGXGXGXGXGXGXGXGXGXGXGXGXGXGXGXGXGXGXGXGXGXGXGXGXGXGXGXGXGXGXGXGX",
"GXGXGXGXGXGXGXGXGXGXGXGXGXGXGXGXGXGXGXGXGXGXGXGXGXGXGXGXGXGXGXGXGXGXGXGXGXGXGXGXGXGXGXGXGXGXGXGXGXGXGXGXGXGXGXGXGXGXGXGXGXGXGXGX",
"GXGXGXGXGXGXGXGXGXGXGXGXGXGXGXGXGXGXGXGXGXGXGXGXGXGXGXGXGXGXGXGXGXGXGXGXGXGXGXGXGXGXGXGXGXGXGXGXGXGXGXGXGXGXGXGXGXGXGXGXGXGXGXGX",
"GXGXGXGXGXGXGXGXGXGXGXGXGXGXGXGXGXGXGXGXGXGXGXGXGXGXGXGXGXGXGXGXGXGXGXGXGXGXGXGXGXGXGXGXGXGXGXGXGXGXGXGXGXGXGXGXGXGXGXGXGXGXGXGX",
"GXGXGXGXGXGXGXGXGXGXGXGXGXGXGXGXGXGXGXGXGXGXGXGXGXGXGXGXGXlXlXlXlXlXxXGXGXGXGXGXGXGXGXGXGXGXGXGXGXGXGXGXGXGXGXGXGXGXGXGXGXGXGXGX",
"GXGXGXGXGXGXGXGXGXGXGXGXGXGXGXGXGXGXGXGXGXGXGXGXGXGXcX2X+X~.~.~.).).OXXXzXGXGXGXGXGXGXGXGXGXGXGXGXGXGXGXGXGXGXGXGXGXGXGXGXGXGXGX",
"GXGXGXGXGXGXGXGXGXGXGXGXGXGXGXGXGXGXGXGXGXGXGXGXgXwX(.z.2.2.2.2.2.2.<.8.U.=XtXGXGXGXGXGXGXGXGXGXGXGXGXGXGXGXGXGXGXGXGXGXGXGXGXGX",
"GXGXGXGXGXGXGXGXGXGXGXGXGXGXGXGXGXGXGXGXGXGXjXoXT.z.2.<.2.2.2.2.2.2.2.2.2.y./..X0XGXGXGXGXGXGXGXGXGXGXGXGXGXGXGXGXGXGXGXGXGXGXGX",
"GXGXGXGXGXGXGXGXGXGXGXGXGXGXGXGXGXGXGXGXGXhX].P.F.C.n.t.2.2.2.2.2.2.2.2.2.2.<.8.H.,XGXGXGXGXGXGXGXGXGXGXGXGXGXGXGXGXGXGXGXGXGXGX",
"GXGXGXGXGXGXGXGXGXGXGXGXGXGXGXGXGXGXGXGXFXlXC.].qX4XF.V.2.2.2.2.2.2.2.2.2.2.2.<.8.c.:XGXGXGXGXGXGXGXGXGXGXGXGXGXGXGXGXGXGXGXGXGX",
"GXGXGXGXGXGXGXGXGXGXGXGXGXGXGXGXGXGXGXsX@X/.P.gXAXNX%.M c c c k c c c c c v ~ <.2.8.C.4XGXGXGXGXGXGXGXGXGXGXGXGXGXGXGXGXGXGXGXGX",
"GXGXGXGXGXGXGXGXGXGXGXGXGXGXGXGXGXGXGX0Xy.<.C.sXVX^.m p e e e e r e e e e 1 s E 2.2.2.`.GXGXGXGXGXGXGXGXGXGXGXGXGXGXGXGXGXGXGXGX",
"GXGXGXGXGXGXGXGXGXGXGXGXGXGXGXGXGXGXgXT.2.2.C.`.XXs.N a e e e e e e e e e ; < n 2.2.2.z.4XGXGXGXGXGXGXGXGXGXGXGXGXGXGXGXGXGXGXGX",
"GXGXGXGXGXGXGXGXGXGXGXGXGXGXGXGXGXGXsXz.2.2.t.t.t.) j t e e * % % % % % % # > D 2.2.2.2. XGXGXGXGXGXGXGXGXGXGXGXGXGXGXGXGXGXGXGX",
"GXGXGXGXGXGXGXGXGXGXGXGXGXGXGXGXGXGX1Xt.2.<.<.2.2.^ d e e e @ 4 6 7 7 7 6 6 0 K t.n.2.2.Q.sXGXGXGXGXGXGXGXGXGXGXGXGXGXGXGXGXGXGX",
"GXGXGXGXGXGXGXGXGXGXGXGXGXGXGXGXGXnXF.2.2.2.2.2.2.^ d e e e $ f k k k b +.+.+.1.`.qXE.2.Z.=XGXGXGXGXGXGXGXGXGXGXGXGXGXGXGXGXGXGX",
"GXGXGXGXGXGXGXGXGXGXGXGXGXGXGXGXGXvXC.2.2.2.2.2.2.^ d e e e : t y y i g 2.2.1.7.(.eXH.2.2.>XGXGXGXGXGXGXGXGXGXGXGXGXGXGXGXGXGXGX",
"GXGXGXGXGXGXGXGXGXGXGXGXGXGXGXGXGXvXC.2.2.2.2.2.2.^ d e e e e e r e r 2 x 2.<.<.y.z.2.2.2.=XGXGXGXGXGXGXGXGXGXGXGXGXGXGXGXGXGXGX",
"GXGXGXGXGXGXGXGXGXGXGXGXGXGXGXGXGXvXC.2.2.2.2.2.2.^ d e e e e e e e 1 & 8 2.2.2.2.2.2.2.2.=XGXGXGXGXGXGXGXGXGXGXGXGXGXGXGXGXGXGX",
"GXGXGXGXGXGXGXGXGXGXGXGXGXGXGXGXGXVXP.2.2.2.2.2.2.^ d e e e +       . o 9 2.2.2.2.2.2.2.y.<XGXGXGXGXGXGXGXGXGXGXGXGXGXGXGXGXGXGX",
"GXGXGXGXGXGXGXGXGXGXGXGXGXGXGXGXGXzX/.2.2.2.2.2.2.^ d e e e + L <.<.<.<.2.7.2.2.2.P.1Xy.V.wXGXGXGXGXGXGXGXGXGXGXGXGXGXGXGXGXGXGX",
"GXGXGXGXGXGXGXGXGXGXGXGXGXGXGXGXGXGXjXz.2.2.2.2.2.^ d e e e + L :.2.2.z.oX4Xz.<.Z.eXvX(. XGXGXGXGXGXGXGXGXGXGXGXGXGXGXGXGXGXGXGX",
"GXGXGXGXGXGXGXGXGXGXGXGXGXGXGXGXGXGXlXC.2.2.2.2.2.^ d e e e + L <.<.2.:XDXZXoXe.<.z.P.7.:XGXGXGXGXGXGXGXGXGXGXGXGXGXGXGXGXGXGXGX",
"GXGXGXGXGXGXGXGXGXGXGXGXGXGXGXGXGXGXGX@X2.2.2.2.2.^ d e e e + L :.2.t.:XVXZX Xf.<.:.{ f.sXGXGXGXGXGXGXGXGXGXGXGXGXGXGXGXGXGXGXGX",
"GXGXGXGXGXGXGXGXGXGXGXGXGXGXGXGXGXGXGXsXz.2.2.2.2.( g - = = O L 2.2.<.t.].=Xf.;.{ ! G p.GXGXGXGXGXGXGXGXGXGXGXGXGXGXGXGXGXGXGXGX",
"GXGXGXGXGXGXGXGXGXGXGXGXGXGXGXGXGXGXGXGX].C.2.2.2.} n 5 3 3 , Q 1.<.2.2.t.f.2.[ Y A P -.GXGXGXGXGXGXGXGXGXGXGXGXGXGXGXGXGXGXGXGX",
"GXGXGXGXGXGXGXGXGXGXGXGXGXGXGXGXGXGXGXGXGX=Xz.2.2.2.@.! R R R $.<.<.2.2.2.:._ Y A X.N.GXGXGXGXGXGXGXGXGXGXGXGXGXGXGXGXGXGXGXGXGX",
"GXGXGXGXGXGXGXGXGXGXGXGXGXGXGXGXGXGXGXGXGXGX4X/.z.<.2.<.<.2.2.2.2.2.2.<.` T C F | B.GXGXGXGXGXGXGXGXGXGXGXGXGXGXGXGXGXGXGXGXGXGX",
"GXGXGXGXGXGXGXGXGXGXGXGXGXGXGXGXGXGXGXGXGXGXGXvX4X~.z.<.2.2.2.2.2.2.} G C D ..m.GXGXGXGXGXGXGXGXGXGXGXGXGXGXGXGXGXGXGXGXGXGXGXGX",
"GXGXGXGXGXGXGXGXGXGXGXGXGXGXGXGXGXGXGXGXGXGXGXGXGXCX8Xi.Q Y U U Y L I V  .*.GXGXGXGXGXGXGXGXGXGXGXGXGXGXGXGXGXGXGXGXGXGXGXGXGXGX",
"GXGXGXGXGXGXGXGXGXGXGXGXGXGXGXGXGXGXGXGXGXGXGXGXGXGXGXM.O.o.o.o.o.o.o.p.GXGXGXGXGXGXGXGXGXGXGXGXGXGXGXGXGXGXGXGXGXGXGXGXGXGXGXGX",
"GXGXGXGXGXGXGXGXGXGXGXGXGXGXGXGXGXGXGXGXGXGXGXGXGXGXGXGXGXGXGXGXGXGXGXGXGXGXGXGXGXGXGXGXGXGXGXGXGXGXGXGXGXGXGXGXGXGXGXGXGXGXGXGX",
"GXGXGXGXGXGXGXGXGXGXGXGXGXGXGXGXGXGXGXGXGXGXGXGXGXGXGXGXGXGXGXGXGXGXGXGXGXGXGXGXGXGXGXGXGXGXGXGXGXGXGXGXGXGXGXGXGXGXGXGXGXGXGXGX",
"GXGXGXGXGXGXGXGXGXGXGXGXGXGXGXGXGXGXGXGXGXGXGXGXGXGXGXGXGXGXGXGXGXGXGXGXGXGXGXGXGXGXGXGXGXGXGXGXGXGXGXGXGXGXGXGXGXGXGXGXGXGXGXGX",
"GXGXGXGXGXGXGXGXGXGXGXGXGXGXGXGXGXGXGXGXGXGXGXGXGXGXGXGXGXGXGXGXGXGXGXGXGXGXGXGXGXGXGXGXGXGXGXGXGXGXGXGXGXGXGXGXGXGXGXGXGXGXGXGX",
"GXGXGXGXGXGXGXGXGXGXGXGXGXGXGXGXGXGXGXGXGXGXGXGXGXGXGXGXGXGXGXGXGXGXGXGXGXGXGXGXGXGXGXGXGXGXGXGXGXGXGXGXGXGXGXGXGXGXGXGXGXGXGXGX",
"GXGXGXGXGXGXGXGXGXGXGXGXGXGXGXGXGXGXGXGXGXGXGXGXGXGXGXGXGXGXGXGXGXGXGXGXGXGXGXGXGXGXGXGXGXGXGXGXGXGXGXGXGXGXGXGXGXGXGXGXGXGXGXGX",
"GXGXGXGXGXGXGXGXGXGXGXGXGXGXGXGXGXGXGXGXGXGXGXGXGXGXGXGXGXGXGXGXGXGXGXGXGXGXGXGXGXGXGXGXGXGXGXGXGXGXGXGXGXGXGXGXGXGXGXGXGXGXGXGX",
"GXGXGXGXGXGXGXGXGXGXGXGXGXGXGXGXGXGXGXGXGXGXGXGXGXGXGXGXGXGXGXGXGXGXGXGXGXGXGXGXGXGXGXGXGXGXGXGXGXGXGXGXGXGXGXGXGXGXGXGXGXGXGXGX",
"GXGXGXGXGXGXGXGXGXGXGXGXGXGXGXGXGXGXGXGXGXGXGXGXGXGXGXGXGXGXGXGXGXGXGXGXGXGXGXGXGXGXGXGXGXGXGXGXGXGXGXGXGXGXGXGXGXGXGXGXGXGXGXGX",
"GXGXGXGXGXGXGXGXGXGXGXGXGXGXGXGXGXGXGXGXGXGXGXGXGXGXGXGXGXGXGXGXGXGXGXGXGXGXGXGXGXGXGXGXGXGXGXGXGXGXGXGXGXGXGXGXGXGXGXGXGXGXGXGX",
"GXGXGXGXGXGXGXGXGXGXGXGXGXGXGXGXGXGXGXGXGXGXGXGXGXGXGXGXGXGXGXGXGXGXGXGXGXGXGXGXGXGXGXGXGXGXGXGXGXGXGXGXGXGXGXGXGXGXGXGXGXGXGXGX",
"GXGXGXGXGXGXGXGXGXGXGXGXGXGXGXGXGXGXGXGXGXGXGXGXGXGXGXGXGXGXGXGXGXGXGXGXGXGXGXGXGXGXGXGXGXGXGXGXGXGXGXGXGXGXGXGXGXGXGXGXGXGXGXGX",
"GXGXGXGXGXGXGXGXGXGXGXGXGXGXGXGXGXGXGXGXGXGXGXGXGXGXGXGXGXGXGXGXGXGXGXGXGXGXGXGXGXGXGXGXGXGXGXGXGXGXGXGXGXGXGXGXGXGXGXGXGXGXGXGX",
"GXGXGXGXGXGXGXGXGXGXGXGXGXGXGXGXGXGXGXGXGXGXGXGXGXGXGXGXGXGXGXGXGXGXGXGXGXGXGXGXGXGXGXGXGXGXGXGXGXGXGXGXGXGXGXGXGXGXGXGXGXGXGXGX",
"GXGXGXGXGXGXGXGXGXGXGXGXGXGXGXGXGXGXGXGXGXGXGXGXGXGXGXGXGXGXGXGXGXGXGXGXGXGXGXGXGXGXGXGXGXGXGXGXGXGXGXGXGXGXGXGXGXGXGXGXGXGXGXGX",
"GXGXGXGXGXGXGXGXGXGXGXGXGXGXGXGXGXGXGXGXGXGXGXGXGXGXGXGXGXGXGXGXGXGXGXGXGXGXGXGXGXGXGXGXGXGXGXGXGXGXGXGXGXGXGXGXGXGXGXGXGXGXGXGX",
"GXGXGXGXGXGXGXGXGXGXGXGXGXGXGXGXGXGXGXGXGXGXGXGXGXGXGXGXGXGXGXGXGXGXGXGXGXGXGXGXGXGXGXGXGXGXGXGXGXGXGXGXGXGXGXGXGXGXGXGXGXGXGXGX",
"GXGXGXGXGXGXGXGXGXGXGXGXGXGXGXGXGXGXGXGXGXGXGXGXGXGXGXGXGXGXGXGXGXGXGXGXGXGXGXGXGXGXGXGXGXGXGXGXGXGXGXGXGXGXGXGXGXGXGXGXGXGXGXGX",
"GXGXGXGXGXGXGXGXGXGXGXGXGXGXGXGXGXGXGXGXGXGXGXGXGXGXGXGXGXGXGXGXGXGXGXGXGXGXGXGXGXGXGXGXGXGXGXGXGXGXGXGXGXGXGXGXGXGXGXGXGXGXGXGX",
"GXGXGXGXGXGXGXGXGXGXGXGXGXGXGXGXGXGXGXGXGXGXGXGXGXGXGXGXGXGXGXGXGXGXGXGXGXGXGXGXGXGXGXGXGXGXGXGXGXGXGXGXGXGXGXGXGXGXGXGXGXGXGXGX"
};
