/* XPM */
static char *pixilart_drawing_1_1741260085[] = {
/* columns rows colors chars-per-pixel */
"64 64 16 1 ",
"  c #154237",
". c #317545",
"X c #A5561B",
"o c #B34428",
"O c #D16630",
"+ c #9E2953",
"@ c #909C28",
"# c #E68D3E",
"$ c #BECF25",
"% c #A3C255",
"& c #F5CB53",
"* c #CFDB72",
"= c #FFEA63",
"- c #79B8BD",
"; c #D0DDE4",
": c None",
/* pixels */
"::::::::::::::::::::::::::::::::::::::::::::::::::::::::::::::::",
"::::::::::::::::::::::::::::::::::::::::::::::::::::::::::::::::",
"::::::::::::::::::::::::::::::::::::::::::::::::::::::::::::::::",
"::::::::::::::::::::::::::::::::::::::::::::::::::::::::::::::::",
"::::::::::::::::::::::::::::::::::::::::::::::::::::::::::::::::",
"::::::::::::::::::::::::::::::::::::::::::::::::::::::::::::::::",
"::::::::::::::::::::::::::::::::::::::::::::::::::::::::::::::::",
"::::::::::::::::::::::::::::::::::::::::::::::::::::::::::::::::",
"::::::::::::::::::::::::::::::::::::::::::::::::::::::::::::::::",
"::::::::::::::::::::::::::::::::::::::::::::::::::::::::::::::::",
"::::::::::::::::::::::::::::::::::::::::::::::::::::::::::::::::",
"::::::::::::::::::::::::::::::::::::::::::::::::::::::::::::::::",
"::::::::::::::::::::::::::::::::::::::::::::::::::::::::::::::::",
"::::::::::::::::::::::::::::::::::::::::::::::::::::::::::::::::",
"::::::::::::::::::::::::::::::::::::::::::::::::::::::::::::::::",
"::::::::::::::::::::::::::::::::::::::::::::::::::::::::::::::::",
"::::::::::::::::::::::::::::::::::::::::::::::::::::::::::::::::",
"::::::::::::::::::::::::::::::::::::::::::::::::::::::::::::::::",
"::::::::::::::::::::::::::::::::::::::::::::::::::::::::::::::::",
":::::::::::: . . .::::::::::::::::::::::::::::. . . ::::::::::::",
":::::::::...******....::::::::::::::::::::....******...:::::::::",
":::::::: *************.::::::::::::::::::.************* ::::::::",
":::::::: **+$+$$$$$$$$.::::::::::::::::::.$$$$$$$$+$+** ::::::::",
":::::::: *$$+$$   $$$$.:::::::....:::::::.$$$$   $$+$$* ::::::::",
":::::::::.$+$+$   $$$$$.:::::.;;;;.:::::.$$$$$   $+$+$.:::::::::",
"::::::::::.....   ...$$$.....------.....$$$...   .....::::::::::",
":::::::::::::::...:::...%%%%%%++++%%%%%%...:::...:::::::::::::::",
":::::::::::::::O&O::::::...%%%+%%%%%%...::::::O&O:::::::::::::::",
"::::::::::::::::o::::::::::..%++++%..::::::::::o::::::::::::::::",
"::::::::::::::::::::::::::::.%%%%%%.::::::::::::::::::::::::::::",
":::::::::::::::::::::::::::..........:::::::::::::::::::::::::::",
"::::::::::::::.......:::::            :::::.......::::::::::::::",
":::::::::::::.*******. . . . .    . . . . .*******.:::::::::::::",
"::::::::::::.**@@@@@@@@@@@@@@@@@@@@@@@@@@@@@@@@@@**.::::::::::::",
"::::::::::::.*@@@  @@@@@@@@@        @@@@@@@@@  @@@*.::::::::::::",
":::::::::::::....  ..........XX%%XX..........  ....:::::::::::::",
":::::::::::::::::  :.:::::::: X%%X ::::::::.:  :::::::::::::::::",
":::::::::::::::::  :.::::::::# %% O::::::::.:  :::::::::::::::::",
":::::::::::::::::  :.::::::::#&==OO::::::::.:  :::::::::::::::::",
":::::::::::::::::  ::::::::::##==OO::::::::::  :::::::::::::::::",
":::::::::::::::::&#::::::::::##&=&:::::::::::#&:::::::::::::::::",
"::::::::::::::::oo&#::::::::::#&=o::::::::::#&oo::::::::::::::::",
":::::::::::::::::o#:::::::::::o#oo:::::::::::#o:::::::::::::::::",
":::::::::::::::::o:::::::::::::oo:::::::::::::o:::::::::::::::::",
"::::::::::::::::::::::::::::::::::::::::::::::::::::::::::::::::",
"::::::::::::::::::::::::::::::::::::::::::::::::::::::::::::::::",
"::::::::::::::::::::::::::::::::::::::::::::::::::::::::::::::::",
"::::::::::::::::::::::::::::::::::::::::::::::::::::::::::::::::",
"::::::::::::::::::::::::::::::::::::::::::::::::::::::::::::::::",
"::::::::::::::::::::::::::::::::::::::::::::::::::::::::::::::::",
"::::::::::::::::::::::::::::::::::::::::::::::::::::::::::::::::",
"::::::::::::::::::::::::::::::::::::::::::::::::::::::::::::::::",
"::::::::::::::::::::::::::::::::::::::::::::::::::::::::::::::::",
"::::::::::::::::::::::::::::::::::::::::::::::::::::::::::::::::",
"::::::::::::::::::::::::::::::::::::::::::::::::::::::::::::::::",
"::::::::::::::::::::::::::::::::::::::::::::::::::::::::::::::::",
"::::::::::::::::::::::::::::::::::::::::::::::::::::::::::::::::",
"::::::::::::::::::::::::::::::::::::::::::::::::::::::::::::::::",
"::::::::::::::::::::::::::::::::::::::::::::::::::::::::::::::::",
"::::::::::::::::::::::::::::::::::::::::::::::::::::::::::::::::",
"::::::::::::::::::::::::::::::::::::::::::::::::::::::::::::::::",
"::::::::::::::::::::::::::::::::::::::::::::::::::::::::::::::::",
"::::::::::::::::::::::::::::::::::::::::::::::::::::::::::::::::",
"::::::::::::::::::::::::::::::::::::::::::::::::::::::::::::::::"
};
