/* XPM */
static char *exit[] = {
/* columns rows colors chars-per-pixel */
"64 64 104 2 ",
"   c #540815",
".  c #570A19",
"X  c #5A0C1D",
"o  c #5E0E21",
"O  c #610F25",
"+  c #611026",
"@  c #65122A",
"#  c #68152E",
"$  c #6C1733",
"%  c #6E1836",
"&  c #721634",
"*  c #721837",
"=  c #7B1837",
"-  c #73173A",
";  c #74183C",
":  c #7B193D",
">  c #7D1544",
",  c #771940",
"<  c #7C1A44",
"1  c #84193A",
"2  c #8B193A",
"3  c #941A3C",
"4  c #9C1B3F",
"5  c #A11B3F",
"6  c #870347",
"7  c #880047",
"8  c #830C46",
"9  c #8E0847",
"0  c #890148",
"q  c #920647",
"w  c #960847",
"e  c #9C0C47",
"r  c #92064C",
"t  c #96094D",
"y  c #9D0C4B",
"u  c #821246",
"i  c #8B1346",
"p  c #831A44",
"a  c #8A1B44",
"s  c #8B124C",
"d  c #831848",
"f  c #8D1C4B",
"g  c #921B45",
"h  c #9C1C45",
"j  c #931C4D",
"k  c #991D4C",
"l  c #960951",
"z  c #9B0C54",
"x  c #931150",
"c  c #9B1651",
"v  c #931D53",
"b  c #A20F47",
"n  c #A51047",
"m  c #AA1446",
"M  c #A41C44",
"N  c #AB1C45",
"B  c #A5134C",
"V  c #AA144D",
"C  c #A41E4B",
"Z  c #B11747",
"A  c #B41C46",
"S  c #BB1D46",
"D  c #B41B4C",
"F  c #BD1E4B",
"G  c #A10F53",
"H  c #A00F59",
"J  c #A71352",
"K  c #AC1553",
"L  c #A41159",
"P  c #AA155C",
"I  c #A71D5F",
"U  c #AE185E",
"Y  c #B31953",
"T  c #BD1F54",
"R  c #B51C5D",
"E  c #BB1E5C",
"W  c #BF204E",
"Q  c #A42054",
"!  c #BF2052",
"~  c #B3245D",
"^  c #BD205C",
"/  c #AC1661",
"(  c #AF1863",
")  c #B41B64",
"_  c #B91E65",
"`  c #B61C68",
"'  c #BA1E6A",
"]  c #B02165",
"[  c #BB2365",
"{  c #BF226E",
"}  c #C12154",
"|  c #C3235B",
" . c #C42462",
".. c #C92764",
"X. c #C6266B",
"o. c #C8266A",
"O. c #CC296C",
"+. c #C42571",
"@. c #C82774",
"#. c #CB2973",
"$. c #CD2A78",
"%. c #D02C75",
"&. c #D22D7B",
"*. c None",
/* pixels */
"*.*.*.*.*.*.*.*.*.*.*.*.*.*.*.*.*.*.*.*.*.*.*.*.*.*.*.*.*.*.*.*.*.*.*.*.*.*.*.*.*.*.*.*.*.*.*.*.*.*.*.*.*.*.*.*.*.*.*.*.*.*.*.*.",
"*.*.*.*.*.*.*.*.*.*.*.*.*.*.*.*.*.*.*.*.*.*.*.*.Z L ` K T F F F f g a : < < < < < *.*.*.*.*.*.*.*.*.*.*.*.*.*.*.*.*.*.*.*.*.*.*.",
"*.*.*.*.*.*.*.*.*.*.*.*.*.*.*.*.*.*.*.*.*.| S S T B L r r J B K R Q M W h p < < , p M S *.*.*.*.*.*.*.*.*.*.*.*.*.*.*.*.*.*.*.*.",
"*.*.*.*.*.*.*.*.*.*.*.*.*.*.*.*.*.*.*.S S S S S F F F Z V w r 7 J [ f g A M < < a A S S S S *.*.*.*.*.*.*.*.*.*.*.*.*.*.*.*.*.*.",
"*.*.*.*.*.*.*.*.*.*.*.*.*.*.*.*.*.V S S S S S S S S S S S | L 0 e B v p h g < < M S S S S S S S *.*.*.*.*.*.*.*.*.*.*.*.*.*.*.*.",
"*.*.*.*.*.*.*.*.*.*.*.*.*.*.*.O...K S S S S S S S S S S D L 0 7 6 > < < < < < g A S S S S S S A g < *.*.*.*.*.*.*.*.*.*.*.*.*.*.",
"*.*.*.*.*.*.*.*.*.*.*.*.*.*.m F R D S S S S S S S F | K 0 0 7 0 7 6 < < < < p M A S S S S S S S A h < *.*.*.*.*.*.*.*.*.*.*.*.*.",
"*.*.*.*.*.*.*.*.*.*.*.*.0 w b 9 n S S S S S S S F Y H z 7 0 0 0 0 6 u u g a < C S S S S S S S S F A a < < *.*.*.*.*.*.*.*.*.*.*.",
"*.*.*.*.*.*.*.*.*.*.*.0 0 0 7 9 S S F W F F | T _ ' Y z t _ _ z r r e m S A M S S S S S S S S S S S N p ; : *.*.*.*.*.*.*.*.*.*.",
"*.*.*.*.*.*.*.*.*.*.0 7 0 7 r Y S A K _ o.F F F F F F  .F F F F  .X.S W S S S S S S S S S S S S S S M , 2 = $ *.*.*.*.*.*.*.*.*.",
"*.*.*.*.*.*.*.*.*.0 0 0 0 0 y ! V w 7 z F S S S S S S S S S S S S ..W S S S S S S S S S S S S S S S A N A = $ < *.*.*.*.*.*.*.*.",
"*.*.*.*.*.*.*.*.w 0 0 0 0 0 Y J 9 7 0 Y S S S S S S S S S S S S S ! S S S S S S S S S S S S S S S S S S A = $ - : *.*.*.*.*.*.*.",
"*.*.*.*.*.*.*.} z 7 0 0 0 0 r 0 0 0 P F S S S S S S S S S S S S S S S S S S S S S S S S S S S S S S S S S = $ - : *.*.*.*.*.*.*.",
"*.*.*.*.*.*.*.F R ( r 0 0 0 0 0 z Y T S S S S S S S S S S S S S S S S S S S S S S S S W S S S S S S S S S 2 % ; < $ *.*.*.*.*.*.",
"*.*.*.*.*.*.F S F B 0 0 7 0 0 7 z Y S S S S S S S S S S S S S S S S S S S S S S S S S S S S S S S S S S A 1 ; < < +   *.*.*.*.*.",
"*.*.*.*.*.y R F S 0 7 0 0 0 0 0 7 r T S S S S S S S S S S S S S S S S S S S S S S S S S S S S S S S S S F = ; < , . . o *.*.*.*.",
"*.*.*.*.*.0 r V X.9 7 0 0 0 7 0 0 7 U ! S S S S S S S S S S S S S S S S S S S S S S S S S S S S S S S S S = - < ; .   o *.*.*.*.",
"*.*.*.*.0 0 7 l E P 7 0 0 7 0 0 7 7 P } S S S S S S S S S S S S S S S S S S S S S S S S S S S S S S S S S h : < < $ + # % *.*.*.",
"*.*.*.*.0 0 7 t J L 7 0 0 0 0 0 0 9 ) T S S S S S S S S S S S S S S S S S S S S S S S S S S S S S S S S S S g < < % $ $ # *.*.*.",
"*.*.*.0 0 0 0 0 7 7 0 0 0 7 0 7 7 l F S S S S S S S S S S S S S S S S S S S S S S S S S S S S S S S S S S S 2 < < $ $ $ @ X *.*.",
"*.*.*.r 0 0 7 0 7 0 0 0 0 0 0 0 l E S S S S S S S S S S S S S S S S S S S S S S S S S S S S S S S S S S S M $ $ ; % $ $ X X *.*.",
"*.*.R l 7 0 0 0 7 z l 0 0 0 t y E F S S S S S S S S S S S S S S S S S S S S S S S S S S S S S S S S S S S M % % ; % $ @ .   # *.",
"*.*.P z 7 0 7 0 0 0 0 0 0 H o.F S S S S S S S S S S S S S S S S S S S S S S S S S S S S S S S S S S S S S N = ; - + # @ X   @ *.",
"*.*.K r 7 7 0 0 0 0 0 0 0 r @.&.} S S S S S S S S S S S S S S S S S S S S S S S S S S S S S S S S S S S S 5 * < ; X o @ X   @ *.",
"*.m | z 7 7 0 0 0 0 0 7 0 9 @.&.O.S S S S S S S S S S S S S S S S S S S S S S S S S S S S S S S S S S S S 5 ; < : X + O     + *.",
"*.w ! l 7 0 0 7 0 7 7 l l l @.&.&.| } S S S S S S S S S S S S S S S S S S S S S S S S S S S S S S S S S S M : < - $ +     . + *.",
"*.q S r 0 0 0 0 0 0 0 ) #.@.} } | | S S S S S S S S S S S S S S S S S S S S S S S S S S S A S S S S S S S N : < % + .     . +   ",
"*.9 A w 0 7 0 7 0 0 9 ( $.&...} S S S S S S S S S S S S S S S S S S S S S S S S S S S S h M S S S S S S S 5 - $ $ o     . X +   ",
"*.t F w 7 7 0 0 0 7 z +.@.O.%.%.| S S S S S S S S S S S S S S S S S S S S S S S S S S S h A S S S S 5 A S N - O $       o + +   ",
"*.c K c z 7 0 0 0 0 X.O.F S F #...} S S S S S S S S S S S S S S S S S S S S S S S S S S S S S S S S 4 5 S 2 O O # .     . # @   ",
"*.j V ../ 0 0 0 0 0 ' F S S S F ..O...| S S S S S S S S S S S S S S S S S S S S S S S S S S S S S S 5 A S &   O o   . o o $ X   ",
"*.j ! D z 0 0 0 0 0 _ F S S S F %.%./ X.S S F S S S S F F } F S S S S S S S S S S S S S S S S S S S S S 5 +   # X   o X # $ .   ",
"*.a | } Y r 0 0 0 0 l ^ | W S F O.@.0 / | ..o.^ } | ^ ) l ) ~ A S S S S S S S S S S S S S S S S S S S S 2 . . o     @ $ $ @ . . ",
"*.A k A n 6 8 6 8 6 l ` / | S S F | P 9 z #.&.L [ +.z 7 6 f < p M S S S S S S S S S S S S S S S S 5 5 3 + .       . @ $ $ o   . ",
"*.N h A D i < < < u z 0 P }  .| Y W } P 0 ` $./ 9 ' z > < < < g A S S S S S S S S S S S S S S S } 5 5 1 +         o $ $ $ o   X ",
"*.S M N S h < < < < ` 9 _ [ z z H U  .| P l z [ ` s d < < p g S F S S S h a a g S S S S S S S S 5 2 # # .         o $ $ $ X   . ",
"*.S S S S h < < < < Q d 0 0 u 8 8 s I X.O.| x u v d < < p N S S S S S h < < < < N } 5 S S S W W 3 # $ +   .     . # $ $ @ .   + ",
"*.S S S S S g p p p a < > d < < < < < v ] D C < < a g h A S S S S S h < < < < < 5 S S S S S 5 2 $ & +   . o     + $ $ * @ X . + ",
"*.S S S S S g g g p p < < < < < < < < < < p N h < < g h A S S S A A p < < < < p A S S S S S 4 $ $ $ X . + .     @ $ $ $ $ o X + ",
"*.S S A N S Z g g < < < < < < < < < < < < < d N N p p A S S S A p M p < < < < h S S S S S 3 * % $ +   o + .   X $ $ $ $ $ + X *.",
"*.A M F N N A p h p < < < < < < < < < < < < < p M < p a h S S A p a < < < p h S S S S A 2 ; $ $ $ + @ $ o     @ $ $ $ $ # X @ *.",
"*.*.g N A a M p M a < < < < < < < < < < < < < < < < < < < M S F N p < < < k A S S S M 1 ; * % * $ @ $ # X   X $ $ $ $ $ + X @ *.",
"*.*.g g F h g a N M < < < < < < < < < < < < < < h N N N h h a M A A h p h N N A h a : < , * , < * $ @ .   . @ $ $ $ $ # . o X *.",
"*.*.M a N A a g S M < < < < < < < < < < a h a p A S F N p < < < a h h A N h a < < < < * % ; < ; % +       X $ $ $ $ * +   . *.*.",
"*.*.*.a p A A A S A g < < < < < < < < < p N M N N N k p < < < < < < < p p < < < < ; % % ; , % % +       . @ # $ # + # . X o *.*.",
"*.*.*.g < h S S S S A < < < p h p < a p < < p f < < < < < < < < < < < < < < < * - % $ - , - $ +           X @ $ + o + X X *.*.*.",
"*.*.*.*.p < M S S S F M a h g A M p p g a < < < < < < < < < < < < < < < p % % $ $ $ $ - - $ $ X           . $ $ X o o @ + *.*.*.",
"*.*.*.*.N p a A S S S S S N A S F M p < a h h p < < < < < p h M C M M N N * $ $ $ $ $ $ $ $ X             X $ @ o # $ @ *.*.*.*.",
"*.*.*.*.*.g < a A S S S S S S S S S 5 a p a p p < < < < < a A S S S W W 4 * $ $ $ $ $ $ $ X               o $ $ $ $ $ @ *.*.*.*.",
"*.*.*.*.*.N p < p M S F S S S S S S 5 4 , , < < < < < < a A S S S S A 2 $ $ $ $ $ $ $ $ X               . # % $ $ $ @ *.*.*.*.*.",
"*.*.*.*.*.*.h < < a h N S S S S } S W h < < < < < < < < N S S S N 3 1 $ $ $ $ $ $ $ $ X                 @ $ $ $ $ @ @ *.*.*.*.*.",
"*.*.*.*.*.*.*.g < < < p N S S S 5 W N g < < < < < < < , 1 = = = = # $ $ % $ $ $ $ @ .                 @ % $ $ # $ @ *.*.*.*.*.*.",
"*.*.*.*.*.*.*.- < < < > p N S A W W = < < < < < < < < < < ; $ $ # $ $ $ $ $ $ # o X o             X @ % $ # o + # *.*.*.*.*.*.*.",
"*.*.*.*.*.*.*.*.< < < - < p : 1 M 4 $ ; < < < < < < < < < ; % $ $ $ $ # o @ @ . . @ X         o + $ # @ @ X o o *.*.*.*.*.*.*.*.",
"*.*.*.*.*.*.*.*.*.; : O @ < < ; % $ $ % * ; < < < < < < < ; - * @ $ @ .         X           . + $ + X o . . @ *.*.*.*.*.*.*.*.*.",
"*.*.*.*.*.*.*.*.*.*.- $ . O O & $ % $ $ $ % % % - * , ; , $ o X X X         . X         . . o $ o . o . . o *.*.*.*.*.*.*.*.*.*.",
"*.*.*.*.*.*.*.*.*.*.*.; @       . o @ $ $ $ $ $ $ $ $ $ $ # X .         .           X   @ @ o X   o + X # *.*.*.*.*.*.*.*.*.*.*.",
"*.*.*.*.*.*.*.*.*.*.*.*.*.+           X @ $ $ $ $ $ $ $ $ #           X o       X + $ @ + o   o o X @ # *.*.*.*.*.*.*.*.*.*.*.*.",
"*.*.*.*.*.*.*.*.*.*.*.*.*.*.o           X # $ $ $ $ $ $ $ # .         + o     X $ $ o X . + # $ @ + $ *.*.*.*.*.*.*.*.*.*.*.*.*.",
"*.*.*.*.*.*.*.*.*.*.*.*.*.*.*.            + $ $ % $ % $ $ $ # .     X # # X o # @ X   @ o X + @ $ *.*.*.*.*.*.*.*.*.*.*.*.*.*.*.",
"*.*.*.*.*.*.*.*.*.*.*.*.*.*.*.*.*..     . X + # $ $ $ $ $ $ $ # .   o # # + . X o o + o X + o *.*.*.*.*.*.*.*.*.*.*.*.*.*.*.*.*.",
"*.*.*.*.*.*.*.*.*.*.*.*.*.*.*.*.*.*.*.          X @ $ $ $ $ $ $ o       X .       X + + # *.*.*.*.*.*.*.*.*.*.*.*.*.*.*.*.*.*.*.",
"*.*.*.*.*.*.*.*.*.*.*.*.*.*.*.*.*.*.*.*.*.+ .     . o @ o # $ .       . . . X   X X # *.*.*.*.*.*.*.*.*.*.*.*.*.*.*.*.*.*.*.*.*.",
"*.*.*.*.*.*.*.*.*.*.*.*.*.*.*.*.*.*.*.*.*.*.*.*.*.*.X     . o         o X     *.*.*.*.*.*.*.*.*.*.*.*.*.*.*.*.*.*.*.*.*.*.*.*.*."
};
