/* XPM */
static char *pixil_frame_0_1_1740751703[] = {
/* columns rows colors chars-per-pixel */
"64 64 19 1 ",
"  c #750D10",
". c #1D1652",
"X c #871425",
"o c #8A491A",
"O c #A5561B",
"+ c #929E29",
"@ c #BECF25",
"# c #083F82",
"$ c #2C488F",
"% c #3973AD",
"& c #3D888A",
"* c #608BBD",
"= c #6CA6A8",
"- c #74CEDA",
"; c #8DD8DB",
": c #A5E2E6",
"> c #D0DDE4",
", c #CDF1F4",
"< c None",
/* pixels */
"<<<<<<<<<<<<<<<<<<<<<<<<<<<<<    <<<<<<<<<<<<<<<<<<<<<<<<<<<<<<<",
"<<<<<<<<<<<<<<<<<<<<<<<<<<<< ;;;; <<<<<<<<<<<<<<<<<<<<<<<<<<<<<<",
"<<<<<<<<<<<<<<<<<<<<<<<<<<< ;====; <<<<<<<<<<<<<<<<<<<<<<<<<<<<<",
"<<<<<<<<<<<<<<<<<<<<<<<<<< ;=    =; <<<<<<<<<<<<<<<<<<<<<<<<<<<<",
"<<<<<<<<<<<<<<<<<<<<<<<<< ;= #### =; <<<<<<<<<<<<<<<<<<<<<<<<<<<",
"<<<<<<<<<<<<<<<<<<<<<<<< ;== **** ==; <<<<<<<<<<<<<<<<<<<<<<<<<<",
"<<<<<<<<<<<<<<<<<<<<<<< &=== #### ===& <<<<<<<<<<<<<<<<<<<<<<<<<",
"<<<<<<<<<<< <<<<<<<<<<< &=== #### ===& <<<<<<<<<< <<<<<<<<<<<<<<",
"<<<<<<<<<< @ <<<<<<<<<< &====    ====& <<<<<<<<< @ <<<<<<<<<<<<<",
"<<<<<<<<<< @ <<<<<< <<< &============& <<< <<<<< @ <<<<<<<<<<<<<",
"<<<<<<<<<< @ <<<<< @ << &====    ====& << @ <<<< @ <<<<<<<<<<<<<",
"<<<<<<<<<< @ <<<<< @ << &=== #### ===& << @ <<<< @ <<<<<<<<<<<<<",
"<<<<<<<<<< @ <<<<< @ << &====    ====& << @ <<<< @ <<<<<<<<<<<<<",
"<<<<<<<<<< @ <<<<< @ << &============& << @ <<<< @ <<<<<<<<<<<<<",
"<<<<<<<<<< @ <<<<< @ << &============& << @ <<<< @ <<<<<<<<<<<<<",
"<<<<<<<<<< @ <<<<< @ << &====    ====& << @ <<<< @ <<<<<<<<<<<<<",
"<<<<<<<<<< @ <<<<< @ < ; === OOOO === ; < @ <<<< @ <<<<<<<<<<<<<",
"<<<<<<<<<< @ <<<<< @ < ;& == OOOO == &; < @ <<<< @ <<<<<<<<<<<<<",
"<<<<<<<<<< @ <<<<< @  ;=& == XXXX == &=;  @ <<<< @ <<<<<<<<<<<<<",
"<<<<<<<<<< @ <<<<< @  ;=& == OOOO == &=;  @ <<<< @ <<<<<<<<<<<<<",
"<<<<<<<<<< @ <<<<< + ;==& == XXXX == &==; + <<<< @ <<<<<<<<<<<<<",
"<<<<<<<<<< @ <<<<< + ;==&  = OOOO =  &==; + <<<< @ <<<<<<<<<<<<<",
"<<<<<<<<<< @ <<<<<  ;===&& = OOOO = &&===;  <<<< @ <<<<<<<<<<<<<",
"<<<<<<<<<< @ <<<<<  ;====&   OOOO   &====;  <<<< @ <<<<<<<<<<<<<",
"<<<<<<<<<< @  <<<< ;=====&&& OOOO &&&=====; <<<  @ <<<<<<<<<<<<<",
"<<<<<<<<<< @@ <<< ;========& OOOO &========; << @@ <<<<<<<<<<<<<",
"<<<<<<<<<< +@ << ;========= oOOOOo =========; < @+ <<<<<<<<<<<<<",
"<<<<<<<<<< ++ < ;========= oOOOOOOo =========;  ++ <<<<<<<<<<<<<",
"<<<<<<<<<< ++  ;========= oOOOOOOOOo =========; ++ <<<<<<<<<<<<<",
"<<<<<<<<<< ++ ;========= oOOOOOOOOOOo =========; + <<<<<<<<<<<<<",
"<<<<<<<<<< + ;========& oO,,,OOOO,,,Oo &========;  <<<<<<<<<<<<<",
"<<<<<<<<<<  ;=========& oO,,,OOOO,,,Oo &=========; <<<<<<<<<<<<<",
"<<<<<<<<<< ;==========& oO,,,OOOO,,,Oo &==========; <<<<<<<<<<<<",
"<<<<<<<<< ;==========&& oO,,,,,,,,,,Oo &===========; <<<<<<<<<<<",
"<<<<<<<< ;;=========&&& oO,,,,,,,,,,Oo &&&=========;; <<<<<<<<<<",
"<<<<<<<  ;=========&&&  oO,,,OOOO,,,Oo  &&&=========;  <<<<<<<<<",
"<<<<<<<  ;========&&& X oO,,,OOOO,,,Oo X &&&========;  <<<<<<<<<",
"<<<<<< . ========&&& XX oO,,,OOOO,,,Oo XX &&&======== . <<<<<<<<",
"<<<<< #. =======&&& XX = oOOOOOOOOOOo = XX &&&======= .# <<<<<<<",
"<<<<< #. ======&&& XX === oOOOOOOOOo === XX &&&====== .# <<<<<<<",
"<<<<< #. =====&&& XX ====& oOOOOOOo &==== XX &&&===== .# <<<<<<<",
"<<<<< #. ====&&& XX =====& oOOOOOOo &===== XX &&&==== .## <<<<<<",
"<<<< ##. ===&&& XX ======& oOOOOOOo &====== XX &&&=== .## <<<<<<",
"<<<< ##. ==&&& XX  ======&& OOOOOO &&======  XX &&&== .## <<<<<<",
"<<<< ##. =&&& XX : =======& OOOOOO &======= : XX &&&= .## <<<<<<",
"<<<< ##. &&& XX := =======& XXXXXX &======= =: XX &&& .## <<<<<<",
"<<<< ##. && XX :== =======& OOOOOO &======= ==: XX && .## <<<<<<",
"<<<< ##. & XX :=== =======& XXXXXX &======= ===: XX & .## <<<<<<",
"<<<< ##.  XX :==== =======& OOOOOO &======= ====: XX  .## <<<<<<",
"<<<< ##. XX :===== =======& OOOOOO &======= =====: XX .## <<<<<<",
"<<<< ##. X :====== &&&&                &&&& ======: X .## <<<<<<",
"<<<< ##.  :======= &&&                  &&& =======:  .## <<<<<<",
"<<<< ##. :======&&    <<              <<    &&======= .## <<<<<<",
"<<<< ##. ======&   <<<<<<%%%%%%%>>-%%<<<<<<   &====== .## <<<<<<",
"<<<< ##. =====& <<<<<<<<<$%%%%%%>>-%%<<<<<<<<< &===== .## <<<<<<",
"<<<< ##. ====& <<<<<<<<<<$$$-%%>>-%%$<<<<<<<<<< &==== .## <<<<<<",
"<<<< ##. ===& <<<<<<<<<<<<<$-%%%--%$<<<<<<<<<<<< &=== .## <<<<<<",
"<<<< ##. ==& <<<<<<<<<<<<<<$$--%--%$<<<<<<<<<<<<< &== .## <<<<<<",
"<<<< ##. =& <<<<<<<<<<<<<<<<$--%--%$<<<<<<<<<<<<<< &= .## <<<<<<",
"<<<< ##. & <<<<<<<<<<<<<<<<<$$----$<<<<<<<<<<<<<<<< & .## <<<<<<",
"<<<< ##.  <<<<<<<<<<<<<<<<<<<$$---$<<<<<<<<<<<<<<<<<  .## <<<<<<",
"<<<< #.. <<<<<<<<<<<<<<<<<<<<<$$$-$<<<<<<<<<<<<<<<<<< ..# <<<<<<",
"<<<< .. <<<<<<<<<<<<<<<<<<<<<<<<$$$<<<<<<<<<<<<<<<<<<< .. <<<<<<",
"<<<<<  <<<<<<<<<<<<<<<<<<<<<<<<<<$<<<<<<<<<<<<<<<<<<<<<  <<<<<<<"
};
