/* XPM */
static char *pixil_frame_0_3_1741021164[] = {
/* columns rows colors chars-per-pixel */
"64 64 19 1 ",
"  c #750D10",
". c #1D1652",
"X c #871425",
"o c #8A491A",
"O c #A5561B",
"+ c #929E29",
"@ c #BECF25",
"# c #083F82",
"$ c #2C488F",
"% c #3973AD",
"& c #3D888A",
"* c #608BBD",
"= c #6CA6A8",
"- c #74CEDA",
"; c #8DD8DB",
": c #A5E2E6",
"> c #D0DDE4",
", c #CDF1F4",
"< c None",
/* pixels */
"<<<<<<<<<<<<<<<<<<<<<<<<<<<<<<<<<<<<<<<<<<<<<<<<<<<<<<<<<<<<<<<<",
"<<<<<<<<<<<<<<<<<<<<<<<<<<<<<<<<<<<<<<<<<<<<<<<<<<<<<<<<<<<<<<<<",
"<<<<<<<<<<<<<<<<<<<<<<<<<<<<<<<<<<<<<<<<<<<<<<<<<<<<<<<<<<<<<<<<",
"<<<<<<<<<<<<<<<<<<<<<<<<<<<<<<<<<<<<<<<<<<<<<<<<<<<<<<<<<<<<<<<<",
"<                     <<<<<<<<<<<<<<<<<<<<<<<<<<<<<<<<<<<<<<<<<<",
" .####################    <<<<<<<<<<<<<<<<<<<<<<<<<<<<<<<<<<<<<<",
" ..####################### <<<<<<<<<<<<<<<<<<<<<<<<<<<<<<<<<<<<<",
"< .........................  <<<<<<<<<<<<<<<<<<<<<<<<<<<<<<<<<<<",
"<<                            <<<<<<<<<<<<<<<<<<<<<<<<<<<<<<<<<<",
"<<< &======: XX &&&========;;; <<<<<<<<<<<<<<<<<<<<<<<<<<<<<<<<<",
"<<<< &======: XX &&&=========;;                         <<<<<<<<",
"<<<<< &======: XX &&&==========; +++++@@@@@@@@@@@@@@@@@@ <<<<<<<",
"<<<<<< &======: XX &&&==========; +++@@                 <<<<<<<<",
"<<<<<<< &======: XX &&&==========;      <<<<<<<<<<<<<<<<<<<<<<<<",
"<<<<<<<< &======: XX &&&==========; <<<<<<<<<<<<<<<<<<<<<<<<<<<<",
"<<<<<<<<< &======: XX &&&==========; <<<<<<<<<<<<<<<<<<<<<<<<<<<",
"<<<<<<<<<< &======: XX &&&==========; <<<<<<<<<<<<<<<<<<<<<<<<<<",
"<<<<<<<<<< &=======: XX &&&==========; <<<<<<<<<<<<<<<<<<<<<<<<<",
"<<<<<<<<<<            XX &&&==========;               <<<<<<<<<<",
"<<<<<<<<<<< &&======== XX &&&==========;  ++@@@@@@@@@@ <<<<<<<<<",
"<<<<<<<<<<< &&========= XX &&&==========;;            <<<<<<<<<<",
"<<<<<<<<<<< &&========== XX &&&===========;;  <<<<<<<<<<<<<<<<<<",
"<<<<<<<<<<<< &=========== XX &&&&&==========;;  <<<<<<<<<<<<<<<<",
"<<<<<<<<<<<<  ============        ============;;          <<<<<<",
"<<<<<<<<<<<   =========== oooooooo ======&&&&&& &&&&&&&&&& <<<<<",
"<<<<<<<<$$%   ======&&&& oOOOOOOOOo ===&&&     ===========; <<<<",
"<<<<<<<<$%%   &&&&&&&   oO,,,,,,,,Oo ==&   ================; <<<",
"<<<<<<$$$%%          oooOO,,,,,,,,OOo && ===================; <<",
"<<<<$$$--%%   OOXOXOOOOOOO,,,,,,,,OOOo          ==== ===    =; <",
"<<<$$--%%%%   OOXOXOOOOOOOOOO,,OOOOOOOOOOOOXOXOO == # = ##*# =; ",
"<<$$---%%%%   OOXOXOOOOOOOOOO,,OOOOOOOOOOOOXOXOO == # = ##*# =; ",
"<<$--%%%>%%   OOXOXOOOOOOOOOO,,OOOOOOOOOOOOXOXOO == # = ##*# =; ",
"<$$----->>>   OOXOXOOOOOOOOOO,,OOOOOOOOOOOOXOXOO == # = ##*# =; ",
"$$------->>   OOXOXOOOOOOO,,,,,,,,OOOo          ==== ===    =; <",
"<$$$$%%%%--          oooOO,,,,,,,,OOo && ===================; <<",
"<<<<<$$$%%%   &&&&&&&   oO,,,,,,,,Oo ==&   ================; <<<",
"<<<<<<<<$%%   ======&&&& oOOOOOOOOo ===&&&     ===========; <<<<",
"<<<<<<<<<<<   =========== oooooooo ======&&&&&& &&&&&&&&&& <<<<<",
"<<<<<<<<<<<<  ============        ============;;          <<<<<<",
"<<<<<<<<<<<< &=========== XX &&&&&==========;;  <<<<<<<<<<<<<<<<",
"<<<<<<<<<<< &&========== XX &&============;;  <<<<<<<<<<<<<<<<<<",
"<<<<<<<<<<< &&========= XX &&&==========;;            <<<<<<<<<<",
"<<<<<<<<<<< &&======== XX &&&==========;  ++@@@@@@@@@@ <<<<<<<<<",
"<<<<<<<<<<            XX &&&==========;               <<<<<<<<<<",
"<<<<<<<<<< &=======: XX &&&==========; <<<<<<<<<<<<<<<<<<<<<<<<<",
"<<<<<<<<<< &======: XX &&&==========; <<<<<<<<<<<<<<<<<<<<<<<<<<",
"<<<<<<<<< &======: XX &&&==========; <<<<<<<<<<<<<<<<<<<<<<<<<<<",
"<<<<<<<< &======: XX &&&==========;     <<<<<<<<<<<<<<<<<<<<<<<<",
"<<<<<<< &======: XX &&&==========; ++@@                 <<<<<<<<",
"<<<<<< &======: XX &&&==========; ++++@@@@@@@@@@@@@@@@@@ <<<<<<<",
"<<<<< &======: XX &&&==========;                        <<<<<<<<",
"<<<< &======: XX &&&=========;; <<<<<<<<<<<<<<<<<<<<<<<<<<<<<<<<",
"<<< &======= XX &&&========;;; <<<<<<<<<<<<<<<<<<<<<<<<<<<<<<<<<",
"<<                            <<<<<<<<<<<<<<<<<<<<<<<<<<<<<<<<<<",
"< .........................  <<<<<<<<<<<<<<<<<<<<<<<<<<<<<<<<<<<",
" ..####################### <<<<<<<<<<<<<<<<<<<<<<<<<<<<<<<<<<<<<",
" .#####################   <<<<<<<<<<<<<<<<<<<<<<<<<<<<<<<<<<<<<<",
"<                      <<<<<<<<<<<<<<<<<<<<<<<<<<<<<<<<<<<<<<<<<",
"<<<<<<<<<<<<<<<<<<<<<<<<<<<<<<<<<<<<<<<<<<<<<<<<<<<<<<<<<<<<<<<<",
"<<<<<<<<<<<<<<<<<<<<<<<<<<<<<<<<<<<<<<<<<<<<<<<<<<<<<<<<<<<<<<<<",
"<<<<<<<<<<<<<<<<<<<<<<<<<<<<<<<<<<<<<<<<<<<<<<<<<<<<<<<<<<<<<<<<",
"<<<<<<<<<<<<<<<<<<<<<<<<<<<<<<<<<<<<<<<<<<<<<<<<<<<<<<<<<<<<<<<<",
"<<<<<<<<<<<<<<<<<<<<<<<<<<<<<<<<<<<<<<<<<<<<<<<<<<<<<<<<<<<<<<<<",
"<<<<<<<<<<<<<<<<<<<<<<<<<<<<<<<<<<<<<<<<<<<<<<<<<<<<<<<<<<<<<<<<"
};
