/* XPM */
static char *pixil_frame_0_10_1740757952[] = {
/* columns rows colors chars-per-pixel */
"64 64 23 1 ",
"  c #0A4469",
". c #871425",
"X c #B34428",
"o c #D16630",
"O c #9B4B6E",
"+ c #929E29",
"@ c #BECF25",
"# c #EDAC4A",
"$ c #CFDB72",
"% c #083F82",
"& c #2C488F",
"* c #AD718D",
"= c #74CEDA",
"- c #BD849E",
"; c #CDA5B7",
": c #C7B5BD",
"> c #DEE69A",
", c #F5D9A6",
"< c #F2DFBD",
"1 c #88D5DB",
"2 c #CDF1F4",
"3 c #F1F4F7",
"4 c None",
/* pixels */
"4444444444444444444444444444444444444444444444444444444444444444",
"4444444444444444444444444444444444444444444444444444444444444444",
"4444444444444444444444444444444444444444444444444444444444444444",
"4444444444444444444444444444444444444444444444444444444444444444",
"4444444444444444444444444444444444444444444444444444444444444444",
"4444444444444444444444444444444444444444444444444444444444444444",
"4444444444444444444444444444444444444444444444444444444444444444",
"4444444444444444444444444444444444444444444444444444444444444444",
"4444444444444444444444444444444444444444444444444444444444444444",
"4444444444444444444444444444444444444444444444444444444444444444",
"44444444444444444444444444444444444444+444+444+44444444444444444",
"444444444444444444444444444444444444444@44@44@444444444444444444",
"4444444444444444444444444444444444444444@+@+@4444444444444444444",
"4444444444444444444444444444444444444444+$>$+4444444444444444444",
"44444444444444444444444444444444444444+@@>3>@@+44444444444444444",
"4444444444444444444444444444444444444444+@>$+4444444444444444444",
"4444444444444444444444444444444444444444@+@++4444444444444444444",
"444444444444444444444444444444444444444@44@44@444444444444444444",
"44444444444444444444444444444444444444+444+444+44444444444444444",
"4444444444444444444444444444444444444444444444444444444444444444",
"4444444444444444444444444444444444444444444444444444444444444444",
"4444444444444444444444444444444444444444444444444444444444444444",
"4444444444444444444444444444444444444444444444444444444444444444",
"444444444444444444444444444444444.444444444444444444444444444444",
"44444444444444444444444444444444...44444444444444444444444444444",
"4444444%444%444%4444444444444444.X..4444444444444444444444444444",
"4444444414414414444444444444444.XXX.4444444444444444444444444444",
"4444444441%1 14444444444444444..XoX..444444444444444444444444444",
"444444444%121%444444444444444..X#o#X..44444444444444444444444444",
"4444444 1123211%44444444444...X##<##X...444444444444444444444444",
"444444444%122%444444444444..XXoo,<,ooXX..44444444444444444444444",
"4444444441%1%14444444444444...X##<##X...444444444444444444444444",
"44444444144144144444444444444..X#o#X..44444444444444444444444444",
"4444444%444%444%44444444444444..XoX..444444444444444444444444444",
"4444444444444444444444444444444..X..44444444444444&4=4&444444444",
"44444444444444444444444444444444.X.4444444444444444&=&4444444444",
"44444444444444444444444444444444...444444444444444==%==444444444",
"444444444444444444444444444444444.44444444444444444&=&4444444444",
"44444444444444444444444444444444444444444444444444&4=4&444444444",
"4444444444444444444444444444444444444444444444444444444444444444",
"4444444444444444444444444444444444444444444444444444444444444444",
"4444444444444444444444444444444444444444444444444444444444444444",
"44444444444444444444444444444444444O4O4O444444444444444444444444",
"444444444444444444444444444444444444OOO4444444444444444444444444",
"4444444444444444444.444444444444444OO.OO444444444444444444444444",
"444444444444444444...444444444444444OOO4444444444444444444444444",
"444444444444444444.O..4444444444444O4O4O444444444444444444444444",
"44444444444444444.OOO.444444444444444444444444444444444444444444",
"4444444444444444..O*O..44444444444444444444444444444444444444444",
"444444444444444..*-;-*..4444444444444444444444444444444444444444",
"4444444444444...O--:--O...44444444444444444444444444444444444444",
"444444444444..OO*;:::;*OO..4444444444444444444444444444444444444",
"4444444444444...O--:--O...44444444444444444444444444444444444444",
"444444444444444..*-;-*..4444444444444444444444444444444444444444",
"4444444444444444..O*O..44444444444444444444444444444444444444444",
"44444444444444444..O..444444444444444444444444444444444444444444",
"444444444444444444.O.4444444444444444444444444444444444444444444",
"444444444444444444...4444444444444444444444444444444444444444444",
"4444444444444444444.44444444444444444444444444444444444444444444",
"4444444444444444444444444444444444444444444444444444444444444444",
"4444444444444444444444444444444444444444444444444444444444444444",
"4444444444444444444444444444444444444444444444444444444444444444",
"4444444444444444444444444444444444444444444444444444444444444444",
"4444444444444444444444444444444444444444444444444444444444444444"
};
